<svg xmlns="http://www.w3.org/2000/svg" fill="none" viewBox="32.4 32.4 96.87599999999999 98.496" style="max-height: 500px" width="96.87599999999999" height="98.496">
<path fill="#0BB5E4" d="M33.8602 44.8187C33.6732 44.299 33.9428 43.7261 34.4625 43.5391C34.9821 43.352 35.555 43.6216 35.742 44.1413L33.8602 44.8187ZM126.938 115.456C127.411 115.742 127.563 116.357 127.277 116.829L122.625 124.534C122.339 125.006 121.725 125.158 121.252 124.873C120.779 124.587 120.627 123.972 120.913 123.5L125.048 116.652L118.2 112.516C117.727 112.23 117.576 111.616 117.861 111.143C118.147 110.67 118.761 110.518 119.234 110.804L126.938 115.456ZM35.742 44.1413C37.4122 48.7812 41.4507 52.0291 46.5863 53.8265C51.7212 55.6237 57.8479 55.9259 63.4546 54.7412L63.8681 56.698C57.9351 57.9517 51.4346 57.6424 45.9256 55.7143C40.4175 53.7865 35.7957 50.1954 33.8602 44.8187L35.742 44.1413ZM63.4546 54.7412C66.1699 54.1675 67.648 53.0744 68.3487 51.9983C69.0419 50.9336 69.0577 49.7658 68.6223 48.7933C68.1814 47.8087 67.2785 47.0282 66.1234 46.7862C64.9882 46.5484 63.4841 46.8086 61.8185 48.1556L60.5609 46.6005C62.6047 44.9476 64.7067 44.4459 66.5336 44.8287C68.3405 45.2073 69.7555 46.43 70.4477 47.976C71.1452 49.534 71.1091 51.4242 70.0247 53.0896C68.9478 54.7436 66.9226 56.0526 63.8681 56.698L63.4546 54.7412ZM61.8185 48.1556C58.378 50.9378 56.2786 55.731 55.7931 60.8078C55.3077 65.8837 56.4565 71.0321 59.2471 74.4829L57.6919 75.7405C54.483 71.7724 53.2823 66.0537 53.8022 60.6174C54.322 55.182 56.5824 49.8178 60.5609 46.6005L61.8185 48.1556ZM59.2471 74.4829C62.1618 78.0872 65.736 81.1029 70.7467 82.7292C75.7689 84.3592 82.337 84.6268 91.2904 82.5426L91.7439 84.4905C82.5503 86.6307 75.5944 86.4053 70.1293 84.6315C64.6529 82.8541 60.7768 79.5552 57.6919 75.7405L59.2471 74.4829ZM91.2904 82.5426C100.135 80.4837 104.656 75.6991 105.618 71.3824C106.098 69.2282 105.713 67.1505 104.528 65.4499C103.341 63.7452 101.293 62.3406 98.3146 61.6644L98.7574 59.7141C102.129 60.4795 104.647 62.121 106.169 64.3067C107.695 66.4964 108.164 69.1532 107.57 71.8174C106.385 77.1375 101.046 82.3249 91.7439 84.4905L91.2904 82.5426ZM98.3146 61.6644C95.5184 61.0296 91.7942 62.0573 87.8113 64.4843C83.866 66.8884 79.8343 70.5672 76.4949 74.9243C69.7644 83.7058 66.1172 94.8382 70.9421 103.667L69.1871 104.626C63.7805 94.7328 68.0192 82.6951 74.9075 73.7077C78.3774 69.1803 82.5882 65.325 86.7706 62.7764C90.9152 60.2508 95.2038 58.9073 98.7574 59.7141L98.3146 61.6644ZM70.9421 103.667C75.8275 112.606 85.5367 116.551 96.2248 117.729C106.893 118.904 118.3 117.288 126.182 115.342L126.661 117.283C118.638 119.265 106.982 120.926 96.0058 119.717C85.0497 118.51 74.5331 114.408 69.1871 104.626L70.9421 103.667Z"/>
</svg>